<?xml version="1.0" encoding="utf-8"?>
<!-- Generator: Adobe Illustrator 16.0.0, SVG Export Plug-In . SVG Version: 6.00 Build 0)  -->
<!DOCTYPE svg PUBLIC "-//W3C//DTD SVG 1.1//EN" "http://www.w3.org/Graphics/SVG/1.1/DTD/svg11.dtd">
<svg version="1.1" id="Layer_1" xmlns="http://www.w3.org/2000/svg" xmlns:xlink="http://www.w3.org/1999/xlink" x="0px" y="0px"
	 width="13px" height="23px" viewBox="3.5 -1.5 13 23" enable-background="new 3.5 -1.5 13 23" xml:space="preserve">
<path fill="#D52D30" d="M15.816-0.895c0.851,0.832,0.917,1.992,0,3.009L8.664,9.571l7.153,7.46c0.917,1.016,0.851,2.179,0,3.005
	c-0.852,0.83-2.286,0.777-3.082,0c-0.799-0.775-8.594-8.962-8.594-8.962C3.713,10.659,3.5,10.116,3.5,9.571
	c0-0.542,0.213-1.087,0.641-1.505c0,0,7.795-8.182,8.594-8.962C13.53-1.675,14.965-1.728,15.816-0.895L15.816-0.895z"/>
</svg>
